<mxfile host="app.diagrams.net" modified="2024-03-26T10:35:52.893Z" agent="Mozilla/5.0 (Windows NT 10.0; Win64; x64) AppleWebKit/537.36 (KHTML, like Gecko) Chrome/123.0.0.0 Safari/537.36" version="24.1.0" etag="s4RZSWsNokty3Sdcen59" type="github">
  <diagram name="第 1 页" id="knkcx8R0jRBe20jQjoFP">
    <mxGraphModel>
      <root>
        <mxCell id="0" />
        <mxCell id="1" parent="0" />
      </root>
    </mxGraphModel>
  </diagram>
</mxfile>
